# xmcd
#
# Track frame offsets: 
#        150
#        3881
#        7406
#        21419
#        26363
#        52631
#        66259
#        90552
#        100820
#        141606
#        148202
#
# Disc length: 2260 seconds
#
# Revision: 0
# Processed by: cddbd v1.5.2PL0 Copyright (c) Steve Scherf et al.
# Submitted via: ExactAudioCopy v1.0b6
#
DISCID=9208d20b
DTITLE=Public Enemy - Live From Metropolis Studios [CD 1)
DYEAR=2015
DGENRE=Hip Hop
TTITLE0=Intro
TTITLE1=Lost In Birth
TTITLE2=Miuzi Weighs A Ton
TTITLE3=Get Up Stand Up
TTITLE4=Rebel Without A Pause
TTITLE5=911 Is A Joke
TTITLE6=Welcome To The Terrordome
TTITLE7=Hoover Music
TTITLE8=Black Steel In The Hour
TTITLE9=Show Em Whatcha Got
TTITLE10=Bring The Noise
EXTD=
EXTT0=
EXTT1=
EXTT2=
EXTT3=
EXTT4=
EXTT5=
EXTT6=
EXTT7=
EXTT8=
EXTT9=
EXTT10=
PLAYORDER=
